# xmcd
#
# Track frame offsets:
#	150
#	12640
#	24501
#	48195
#	64902
#	81770
#	89247
#	103017
#	114458
#	124471
#	138422
#	151987
#
# Disc length: 2249 seconds
#
# Revision: 1
# Processed by: cddbd v1.5.2PL0 Copyright (c) Steve Scherf et al.
# Submitted via: audiograbber 1.83.01
#
DISCID=a508c70c
DTITLE=Memphis Radio Kings - The Devil's Dutchman
DYEAR=2004
DGENRE=Country Rock
TTITLE0=25 Will Get You 10
TTITLE1=God As My Waitress
TTITLE2=Shackle And Chain
TTITLE3=Holy Rollers
TTITLE4=Lucky One
TTITLE5=Venture To Guess
TTITLE6=Dixieland
TTITLE7=ATF
TTITLE8=Hittin' On The Queen
TTITLE9=Vacant Light
TTITLE10=Double Line
TTITLE11=Been Better Said
EXTD=
EXTT0=
EXTT1=
EXTT2=
EXTT3=
EXTT4=
EXTT5=
EXTT6=
EXTT7=
EXTT8=
EXTT9=
EXTT10=
EXTT11=
PLAYORDER=
